<svg aria-hidden="true" focusable="false" height="72" role="presentation" width="72" viewBox="0 0 72 72" class="svg_9b92a68d"><path d="M70.7011 32.663L64.0786 41.1869L23.0665 41.3882L35.4961 31.561L69.8474 30.9585C70.7349 30.9438 71.2448 31.9621 70.7011 32.663Z" fill="#E3EBF5"></path><path d="M38.6831 70.7216L39.0211 41.1869H64.0785L64.4488 68.8055C64.4635 69.8606 63.6113 70.7231 62.5592 70.7231H38.6831V70.7216Z" fill="#ADC8DB"></path><path d="M15.6402 31.6066L28.9088 49.2657C29.188 49.6359 29.1057 50.1635 28.7251 50.4309L25.6321 52.6144C25.2574 52.8774 24.7343 52.7907 24.4654 52.4204L11.8566 34.2955C11.6464 33.9928 11.7199 33.5785 12.0197 33.3669L14.7174 31.4626C15.0157 31.2539 15.4242 31.3186 15.6402 31.6066Z" fill="#00B2AD"></path><path d="M18.3718 21.8204C18.3791 21.8219 18.3879 21.8233 18.3953 21.8263C19.152 21.9806 19.2622 23.0356 18.5584 23.353C15.8386 24.577 12.5574 27.122 13.3538 28.1535L14.303 29.4671C14.5323 29.7845 14.4838 30.2062 14.2119 30.4692C14.2134 30.4707 14.2193 30.478 14.2208 30.4824L14.1238 30.5515L11.9873 32.062L10.9925 32.7659C10.4826 33.1259 9.86256 33.1288 9.60835 32.7791L8.85896 31.7417C8.72525 31.8064 8.60182 31.8872 8.47692 31.9753C7.8539 32.4162 7.47039 33.0686 7.35578 33.7606C7.35725 33.8385 7.34256 33.9135 7.32933 33.9899C7.34843 34.2514 7.23235 34.513 7.00019 34.6775L4.87398 36.1895C4.52133 36.4393 4.0335 36.3571 3.77929 36.0073L0.750883 31.8137C0.498149 31.464 0.580434 30.9791 0.931618 30.7308L3.06811 29.2202C3.2988 29.0571 3.5868 29.0424 3.82925 29.1468C3.90713 29.1571 3.98354 29.1703 4.05554 29.1953C4.75643 29.3128 5.50288 29.1644 6.1259 28.7236C6.25227 28.634 6.35807 28.534 6.46386 28.4297L6.08917 27.911C5.86729 27.6054 5.99954 27.1264 6.3757 26.7722C6.61521 26.59 6.85619 26.4137 7.10599 26.2359C11.1145 23.4015 14.0209 20.9388 18.3718 21.8204Z" fill="#0847A5"></path><path d="M53.6606 30.6353L44.2948 16.0839C44.161 15.8606 43.9333 15.7107 43.6717 15.6813C43.4102 15.649 43.1457 15.7371 42.9532 15.9208L40.345 18.2469C39.9116 18.6598 39.8175 19.3078 40.1158 19.8074L40.229 19.9837L32.5852 26.0846C31.946 26.6459 31.7917 27.5701 32.2179 28.2813L37.4812 36.457C37.9059 37.0903 38.7081 37.3592 39.4502 37.1123L39.4737 37.0962L48.387 32.6939L48.4649 32.8144C48.7984 33.3125 49.442 33.5079 50.0151 33.2802L53.2536 31.921C53.5034 31.8269 53.6988 31.6242 53.7797 31.3714C53.8605 31.1187 53.8164 30.8469 53.6606 30.6353Z" fill="#FF6C00"></path><path d="M62.9368 24.9444C63.2645 24.7901 63.3585 24.3772 63.1278 24.098C62.2903 23.0841 60.5255 21.2959 58.1539 20.7875C55.8132 20.2849 53.4563 21.1342 52.2323 21.7044C51.8723 21.8719 51.7709 22.323 52.0251 22.6257C52.8788 23.6469 54.6245 25.3866 56.9579 25.8877C59.3339 26.3961 61.7304 25.5115 62.9368 24.9444Z" fill="#00BAB2"></path><path d="M51.458 18.4482C51.6079 18.817 52.0708 18.9257 52.3676 18.6583C53.3344 17.7855 54.9111 16.0663 55.4077 13.7785C55.9308 11.3613 55.1183 8.91333 54.6128 7.71578C54.4953 7.43806 54.1411 7.35725 53.9149 7.55562C52.9686 8.38435 51.2567 10.1579 50.7366 12.5604C50.234 14.8658 50.9526 17.1977 51.458 18.4482Z" fill="#00B9B2"></path><path d="M39.5471 15.3389H39.2341C38.9932 15.3389 38.7992 15.145 38.7992 14.904V9.19101C38.7992 8.95003 38.9932 8.75607 39.2341 8.75607H39.5471C39.7881 8.75607 39.9821 8.95003 39.9821 9.19101V14.9025C39.9821 15.145 39.7881 15.3389 39.5471 15.3389Z" fill="#183B88"></path><path d="M43.3689 10.8103H43.0559C42.8149 10.8103 42.621 10.6163 42.621 10.3754V4.66237C42.621 4.42139 42.8149 4.22743 43.0559 4.22743H43.3689C43.6099 4.22743 43.8038 4.42139 43.8038 4.66237V10.3739C43.8038 10.6149 43.6069 10.8103 43.3689 10.8103Z" fill="#183B88"></path><path d="M47.0513 10.8103H46.7383C46.4973 10.8103 46.3033 10.6163 46.3033 10.3753V7.056C46.3033 6.81502 46.4973 6.62106 46.7383 6.62106H47.0513C47.2922 6.62106 47.4862 6.81502 47.4862 7.056V10.3739C47.4862 10.6149 47.2922 10.8103 47.0513 10.8103Z" fill="#183B88"></path><path d="M10.8353 69.048V41.544L39.0211 41.1869L38.6832 70.7216H12.509C11.5847 70.7216 10.8353 69.9708 10.8353 69.048Z" fill="#8CA6C7"></path><path d="M10.8354 41.544L4.56402 53.0405C4.11291 53.8663 4.71095 54.8743 5.65283 54.8772L31.3921 54.9007C32.1679 54.9007 32.8718 54.4526 33.198 53.7487L39.0197 41.1884L10.8354 41.544Z" fill="#ADC8DB"></path></svg>