<svg aria-hidden="true" focusable="false" height="72" role="presentation" width="72" viewBox="0 0 72 72" class="svg_9b92a68d"><path d="M25.8994 7.21031C25.6599 7.07513 25.5747 6.77096 25.7084 6.53292L27.2718 3.76313C27.407 3.52362 27.7111 3.43839 27.9492 3.57211C28.1887 3.70729 28.2739 4.01145 28.1402 4.24949L26.5768 7.01929C26.4416 7.26027 26.1374 7.34403 25.8994 7.21031Z" fill="#00418D"></path><path d="M28.2887 8.81927C28.1461 8.61943 28.1902 8.34172 28.39 8.19919L30.3531 6.74449C30.553 6.60196 30.8307 6.64604 30.9732 6.84588C31.1158 7.04572 31.0717 7.32343 30.8718 7.46596L28.9087 8.92065C28.7104 9.06318 28.4312 9.0191 28.2887 8.81927Z" fill="#00418D"></path><path d="M23.1531 6.40653C22.9092 6.38155 22.7329 6.16261 22.7579 5.91722L23.0591 3.40751C23.0841 3.16359 23.303 2.98727 23.5484 3.01225C23.7923 3.03722 23.9686 3.25616 23.9436 3.50155L23.6424 6.01127C23.616 6.25518 23.397 6.43298 23.1531 6.40653Z" fill="#00418D"></path><path d="M59.7746 65.8903H9.59946C8.79864 65.8903 8.14917 65.2408 8.14917 64.44V37.4312C8.14917 34.9171 10.1872 32.8776 12.7028 32.8776H56.6698C59.1839 32.8776 61.2235 34.9156 61.2235 37.4312V64.443C61.2235 65.2408 60.574 65.8903 59.7746 65.8903Z" fill="#9DC8DD"></path><path d="M54.6187 60.649H14.7557C12.2415 60.649 10.202 58.611 10.202 56.0954V39.171C10.202 36.8655 12.0711 34.9979 14.3751 34.9979H54.9963C57.3018 34.9979 59.1694 36.867 59.1694 39.171V56.0954C59.1723 58.611 57.1343 60.649 54.6187 60.649Z" fill="white"></path><path d="M64.8823 68.2163H4.4934C3.64409 68.2163 2.95642 67.5271 2.95642 66.6793V66.5897C2.95642 65.7403 3.64556 65.0527 4.4934 65.0527H64.8823C65.7316 65.0527 66.4193 65.7418 66.4193 66.5897V66.6793C66.4193 67.5271 65.7301 68.2163 64.8823 68.2163Z" fill="#7DA6CB"></path><path d="M25.9274 41.0444C24.6108 41.7144 23.0459 41.1752 22.5713 39.8865L20.7875 35.0317C20.4524 34.1221 19.8999 33.3081 19.1711 32.6571L18.7979 32.3236C18.4173 31.9827 18.529 31.3641 19.0139 31.1157L21.9057 29.6419C22.4082 29.3863 22.9901 29.689 23.0121 30.2179C23.0606 31.3273 23.4074 32.3897 24.0231 33.2993L26.9574 37.6369C27.7289 38.7815 27.2498 40.3714 25.9274 41.0444Z" fill="#0046A8"></path><path d="M21.3604 29.9755L20.5199 28.3254C20.1261 27.551 19.221 27.1558 18.3114 27.36L5.8481 30.1665C5.42932 30.2606 5.01201 30.0798 4.82981 29.7228L3.17528 26.4754C3.01806 26.1669 3.15912 25.7804 3.49267 25.6129L4.20973 25.247L3.23112 23.5469L2.06295 24.167C0.996177 24.7342 0.548014 25.9876 1.05936 26.9868L3.07536 30.9394C3.58083 31.9313 4.73871 32.4323 5.90099 32.1649L17.2417 29.5465C18.1013 29.3481 18.9653 29.686 19.3944 30.3884L19.6706 30.841L21.3604 29.9755Z" fill="#0046A8"></path><path d="M26.1331 13.6256L27.554 12.9012C27.8405 12.7543 27.9551 12.4016 27.8096 12.1151L27.4893 11.4862C27.3424 11.1997 26.9897 11.0851 26.7032 11.2305L25.2823 11.9549C24.9957 12.1019 24.8811 12.4545 25.0266 12.7411L25.3469 13.37C25.4939 13.658 25.848 13.7726 26.1331 13.6256Z" fill="#0046A8"></path><path d="M7.60415 27.4203L26.6724 17.7017C27.7215 17.1669 28.1418 15.8723 27.6069 14.8232L25.2868 10.2696C24.7519 9.22042 23.4574 8.80017 22.4082 9.33503L3.34146 19.0536C2.29232 19.5884 1.87207 20.883 2.40693 21.9321L4.72709 26.4857C5.26048 27.5334 6.55501 27.9551 7.60415 27.4203Z" fill="#00B6AD"></path><path d="M35.0184 40.6844C35.6679 40.0643 36.695 40.0893 37.3151 40.7358C37.9352 41.3838 37.9058 42.4844 37.2578 43.1045L33.7401 46.2842L29.8094 49.5198L28.008 50.9187C27.792 51.1009 27.3629 51.4623 26.9985 51.7694C26.6047 52.1015 26.3784 52.5894 26.3784 53.1051V57.4325L24.9208 60.5461C24.9149 60.5946 24.8723 60.6284 24.8238 60.6269L16.9538 58.0599C16.8979 58.057 16.4145 55.6383 15.5623 58.6991L16.0045 52.1868L16.7863 41.8584L17.0787 39.2973C17.2006 37.6046 18.094 36.0632 19.4987 35.1125L20.5273 34.4263L20.6361 34.657C20.736 34.8877 21.0299 35.6268 21.118 35.8633L21.5118 36.9345L21.8953 37.9763L25.6775 34.9229L28.7471 32.6101C29.4877 32.04 30.4207 31.9327 31.0643 32.6116C31.7784 33.1303 31.9092 34.2911 31.3332 34.873C30.5588 35.6517 30.9761 35.2932 30.3252 35.8295L30.6529 35.5606C31.3185 34.8921 32.6072 34.3734 33.4241 35.2286C34.0898 35.8795 34.1177 36.9404 33.4859 37.6251L33.4462 37.6677L32.5381 38.542L32.0473 38.9975L33.0201 38.0792C33.6181 37.4091 34.6437 37.3503 35.3138 37.9454C35.9838 38.5435 36.0426 39.5691 35.4475 40.2392L34.3484 41.4543" fill="#FF6C00"></path><path d="M26.0537 58.2274H15.5623V60.6446H26.0537V58.2274Z" fill="#7DA6CB"></path><path d="M26.0772 58.2274H15.5373C14.9334 58.2274 14.4412 57.7366 14.4412 57.1312V54.9874C14.4412 54.3835 14.9319 53.8912 15.5373 53.8912H26.0772C26.6812 53.8912 27.1734 54.382 27.1734 54.9874V57.1312C27.1719 57.7352 26.6826 58.2274 26.0772 58.2274Z" fill="#0045B0"></path><path d="M57.0006 58.5698C59.3589 57.6867 64.4842 55.1887 65.429 49.9092C65.4716 49.6682 65.3423 49.4287 65.1145 49.3347L55.7604 45.4967C55.5459 45.41 55.299 45.4849 55.1712 45.6789C54.363 46.9249 51.8783 51.6078 55.1903 57.8748C55.5356 58.5257 56.3085 58.8284 57.0006 58.5698Z" fill="#0060BC"></path><path d="M60.7709 47.5523L55.7882 45.5084C55.5561 45.4143 55.2901 45.4966 55.1549 45.7067C54.3306 46.9925 51.9076 51.6475 55.1858 57.8645C55.3592 58.1922 55.6383 58.4331 55.9631 58.5595L60.7709 47.5523Z" fill="#0046A8"></path><path d="M61.4762 47.8418L62.7017 44.8252L61.2235 44.2183L59.9319 47.2085L61.4762 47.8418Z" fill="#5E8095"></path><path d="M64.2314 44.9736L65.1306 42.8812L61.1074 41.1855L60.1817 43.2691C60.0054 43.6673 60.1641 44.1316 60.5476 44.3388L63.0573 45.4129C63.4996 45.6568 64.0536 45.4482 64.2314 44.9736Z" fill="#6F93B1"></path><path d="M70.3484 30.8704L65.1291 42.8826L61.1045 41.1869L66.2944 29.1086L70.3484 30.8704Z" fill="#7DA6CB"></path><path d="M71.2081 28.9338L70.3499 30.8704L66.2959 29.1086L67.157 27.1558C67.3186 26.74 67.7961 26.546 68.2017 26.7253L70.8495 27.8214C71.2771 28.0139 71.4432 28.5311 71.2081 28.9338Z" fill="#6F93B1"></path><path d="M40.0364 54.0206L64.9411 54.0515C65.1306 54.0441 65.3099 54.1205 65.4333 54.2542C65.5567 54.3894 65.6067 54.5702 65.5685 54.7435L65.1732 57.0461C65.0909 57.4384 64.7324 57.7235 64.3107 57.7367H64.1593L63.4364 64.2255C63.3453 64.7868 62.8413 65.2071 62.2374 65.2247L42.8444 65.1938C42.2904 65.185 41.81 64.8103 41.6689 64.3078L40.8505 57.7205H40.7476C40.3112 57.7132 39.9394 57.4222 39.8527 57.0196L39.409 54.7142C39.3678 54.5393 39.4149 54.3571 39.5368 54.2219C39.6632 54.0838 39.8469 54.0103 40.0364 54.0206Z" fill="#FF6C00"></path><path d="M41.591 54.0426L39.9115 46.2563C39.8263 45.8552 40.3567 45.6319 40.5845 45.9742L44.5754 52.0119V54.0441L41.591 54.0426Z" fill="#00BEB2"></path><path d="M42.5946 43.9656V53.8942C42.5946 53.9765 42.6607 54.0427 42.743 54.0427H46.775C46.8764 54.0427 46.9484 53.9442 46.9161 53.8487C46.5311 52.6982 44.5268 46.7354 43.3219 43.8216C43.1647 43.4381 42.5946 43.5527 42.5946 43.9656Z" fill="#007668"></path><path d="M49.2745 44.1713L45.0647 54.0426H49.8681C49.8681 54.0426 50.1253 47.4833 50.0121 44.3064C49.9974 43.8965 49.4361 43.7922 49.2745 44.1713Z" fill="#009080"></path><path d="M45.8464 42.0788C45.407 45.2424 44.543 51.7797 44.5724 53.8986C44.5739 53.9809 44.64 54.0455 44.7208 54.0455H47.7933C47.8785 54.0455 47.9491 53.9721 47.9417 53.8868C47.8521 52.7334 47.2878 45.5701 46.5913 42.0597C46.509 41.638 45.9051 41.6542 45.8464 42.0788Z" fill="#00A997"></path><path d="M52.2736 45.5907L46.2417 54.044H51.0363C51.0363 54.044 52.5101 49.0658 53.0112 45.8904C53.0788 45.4643 52.5234 45.2395 52.2736 45.5907Z" fill="#00BEB2"></path></svg>